<svg width="232" height="412" viewBox="0 0 232 412" fill="none" xmlns="http://www.w3.org/2000/svg">
<path d="M26 45H21C19.8954 45 19 44.1046 19 43V36.2969C19 35.7852 19.1962 35.2929 19.5481 34.9215L26.5481 27.5326C27.3369 26.6999 28.663 26.6999 29.4519 27.5326L36.4519 34.9215C36.8038 35.2929 37 35.7852 37 36.2969V43C37 44.1046 36.1046 45 35 45H30M26 45V39.5C26 39.2239 26.2239 39 26.5 39H29.5C29.7761 39 30 39.2239 30 39.5V45M26 45H30" stroke="#1570EF" stroke-width="1.5"/>
<path d="M61.0455 42H57.2784V30.3636H61.1648C62.3049 30.3636 63.2841 30.5966 64.1023 31.0625C64.9205 31.5246 65.5473 32.1894 65.983 33.0568C66.4223 33.9205 66.642 34.9564 66.642 36.1648C66.642 37.3769 66.4205 38.4186 65.9773 39.2898C65.5379 40.161 64.9015 40.8314 64.0682 41.3011C63.2348 41.767 62.2273 42 61.0455 42ZM59.0341 40.4659H60.9489C61.8352 40.4659 62.572 40.2992 63.1591 39.9659C63.7462 39.6288 64.1856 39.142 64.4773 38.5057C64.7689 37.8655 64.9148 37.0852 64.9148 36.1648C64.9148 35.2519 64.7689 34.4773 64.4773 33.8409C64.1894 33.2045 63.7595 32.7216 63.1875 32.392C62.6155 32.0625 61.9053 31.8977 61.0568 31.8977H59.0341V40.4659ZM71.2287 42.1932C70.6757 42.1932 70.1757 42.0909 69.7287 41.8864C69.2817 41.678 68.9276 41.3769 68.6662 40.983C68.4086 40.589 68.2798 40.1061 68.2798 39.5341C68.2798 39.0417 68.3745 38.6364 68.5639 38.3182C68.7533 38 69.009 37.7481 69.331 37.5625C69.6529 37.3769 70.0128 37.2367 70.4105 37.142C70.8082 37.0473 71.2135 36.9754 71.6264 36.9261C72.1491 36.8655 72.5734 36.8163 72.8991 36.7784C73.2249 36.7367 73.4616 36.6705 73.6094 36.5795C73.7571 36.4886 73.831 36.3409 73.831 36.1364V36.0966C73.831 35.6004 73.6908 35.2159 73.4105 34.9432C73.134 34.6705 72.7211 34.5341 72.1719 34.5341C71.5999 34.5341 71.1491 34.661 70.8196 34.9148C70.4938 35.1648 70.2685 35.4432 70.1435 35.75L68.5469 35.3864C68.7363 34.8561 69.0128 34.428 69.3764 34.1023C69.7438 33.7727 70.1662 33.5341 70.6435 33.3864C71.1207 33.2348 71.6226 33.1591 72.1491 33.1591C72.4976 33.1591 72.867 33.2008 73.2571 33.2841C73.651 33.3636 74.0185 33.5114 74.3594 33.7273C74.7041 33.9432 74.9863 34.2519 75.206 34.6534C75.4257 35.0511 75.5355 35.5682 75.5355 36.2045V42H73.8764V40.8068H73.8082C73.6984 41.0265 73.5336 41.2424 73.3139 41.4545C73.0942 41.6667 72.812 41.8428 72.4673 41.983C72.1226 42.1231 71.7098 42.1932 71.2287 42.1932ZM71.598 40.8295C72.0677 40.8295 72.4692 40.7367 72.8026 40.5511C73.1397 40.3655 73.3954 40.1231 73.5696 39.8239C73.7476 39.5208 73.8366 39.197 73.8366 38.8523V37.7273C73.776 37.7879 73.6586 37.8447 73.4844 37.8977C73.3139 37.947 73.1188 37.9905 72.8991 38.0284C72.6795 38.0625 72.4654 38.0947 72.2571 38.125C72.0488 38.1515 71.8745 38.1742 71.7344 38.1932C71.4048 38.2348 71.1037 38.3049 70.831 38.4034C70.562 38.5019 70.3461 38.6439 70.1832 38.8295C70.0241 39.0114 69.9446 39.2538 69.9446 39.5568C69.9446 39.9773 70.0999 40.2955 70.4105 40.5114C70.7211 40.7235 71.117 40.8295 71.598 40.8295ZM84.3381 35.4034L82.7983 35.6761C82.7339 35.4792 82.6316 35.2917 82.4915 35.1136C82.3551 34.9356 82.1695 34.7898 81.9347 34.6761C81.6998 34.5625 81.4063 34.5057 81.054 34.5057C80.5729 34.5057 80.1714 34.6136 79.8494 34.8295C79.5275 35.0417 79.3665 35.3163 79.3665 35.6534C79.3665 35.9451 79.4744 36.1799 79.6903 36.358C79.9063 36.536 80.2547 36.6818 80.7358 36.7955L82.1222 37.1136C82.9252 37.2992 83.5237 37.5852 83.9176 37.9716C84.3116 38.358 84.5085 38.8598 84.5085 39.4773C84.5085 40 84.357 40.4659 84.054 40.875C83.7547 41.2803 83.3362 41.5985 82.7983 41.8295C82.2642 42.0606 81.6449 42.1761 80.9403 42.1761C79.9631 42.1761 79.1657 41.9678 78.5483 41.5511C77.9309 41.1307 77.5521 40.5341 77.4119 39.7614L79.054 39.5114C79.1563 39.9394 79.3665 40.2633 79.6847 40.483C80.0028 40.6989 80.4176 40.8068 80.929 40.8068C81.4858 40.8068 81.9309 40.6913 82.2642 40.4602C82.5975 40.2254 82.7642 39.9394 82.7642 39.6023C82.7642 39.3295 82.6619 39.1004 82.4574 38.9148C82.2566 38.7292 81.9479 38.589 81.5312 38.4943L80.054 38.1705C79.2396 37.9848 78.6373 37.6894 78.2472 37.2841C77.8608 36.8788 77.6676 36.3655 77.6676 35.7443C77.6676 35.2292 77.8116 34.7784 78.0994 34.392C78.3873 34.0057 78.785 33.7045 79.2926 33.4886C79.8002 33.2689 80.3816 33.1591 81.0369 33.1591C81.9801 33.1591 82.7225 33.3636 83.2642 33.7727C83.8059 34.178 84.1638 34.7216 84.3381 35.4034ZM88.0753 36.8182V42H86.3764V30.3636H88.0526V34.6932H88.1605C88.3651 34.2235 88.6776 33.8504 89.098 33.5739C89.5185 33.2973 90.0677 33.1591 90.7457 33.1591C91.3442 33.1591 91.867 33.2822 92.3139 33.5284C92.7647 33.7746 93.1132 34.142 93.3594 34.6307C93.6094 35.1155 93.7344 35.7216 93.7344 36.4489V42H92.0355V36.6534C92.0355 36.0133 91.8707 35.517 91.5412 35.1648C91.2116 34.8087 90.7533 34.6307 90.1662 34.6307C89.7647 34.6307 89.4048 34.7159 89.0866 34.8864C88.7723 35.0568 88.5241 35.3068 88.3423 35.6364C88.1643 35.9621 88.0753 36.3561 88.0753 36.8182ZM99.6776 42.1761C98.8594 42.1761 98.1454 41.9886 97.5355 41.6136C96.9257 41.2386 96.4522 40.714 96.1151 40.0398C95.7779 39.3655 95.6094 38.5777 95.6094 37.6761C95.6094 36.7708 95.7779 35.9792 96.1151 35.3011C96.4522 34.6231 96.9257 34.0966 97.5355 33.7216C98.1454 33.3466 98.8594 33.1591 99.6776 33.1591C100.496 33.1591 101.21 33.3466 101.82 33.7216C102.429 34.0966 102.903 34.6231 103.24 35.3011C103.577 35.9792 103.746 36.7708 103.746 37.6761C103.746 38.5777 103.577 39.3655 103.24 40.0398C102.903 40.714 102.429 41.2386 101.82 41.6136C101.21 41.9886 100.496 42.1761 99.6776 42.1761ZM99.6832 40.75C100.214 40.75 100.653 40.6098 101.001 40.3295C101.35 40.0492 101.607 39.6761 101.774 39.2102C101.945 38.7443 102.03 38.2311 102.03 37.6705C102.03 37.1136 101.945 36.6023 101.774 36.1364C101.607 35.6667 101.35 35.2898 101.001 35.0057C100.653 34.7216 100.214 34.5795 99.6832 34.5795C99.1491 34.5795 98.706 34.7216 98.3537 35.0057C98.0052 35.2898 97.7457 35.6667 97.5753 36.1364C97.4086 36.6023 97.3253 37.1136 97.3253 37.6705C97.3253 38.2311 97.4086 38.7443 97.5753 39.2102C97.7457 39.6761 98.0052 40.0492 98.3537 40.3295C98.706 40.6098 99.1491 40.75 99.6832 40.75ZM105.778 42V30.3636H107.477V34.6875H107.58C107.678 34.5057 107.82 34.2955 108.006 34.0568C108.191 33.8182 108.449 33.6098 108.778 33.4318C109.108 33.25 109.544 33.1591 110.085 33.1591C110.79 33.1591 111.419 33.3371 111.972 33.6932C112.525 34.0492 112.958 34.5625 113.273 35.233C113.591 35.9034 113.75 36.7102 113.75 37.6534C113.75 38.5966 113.593 39.4053 113.278 40.0795C112.964 40.75 112.532 41.267 111.983 41.6307C111.434 41.9905 110.807 42.1705 110.102 42.1705C109.572 42.1705 109.138 42.0814 108.801 41.9034C108.468 41.7254 108.206 41.517 108.017 41.2784C107.828 41.0398 107.682 40.8277 107.58 40.642H107.438V42H105.778ZM107.443 37.6364C107.443 38.25 107.532 38.7879 107.71 39.25C107.888 39.7121 108.146 40.0739 108.483 40.3352C108.82 40.5928 109.233 40.7216 109.722 40.7216C110.229 40.7216 110.653 40.5871 110.994 40.3182C111.335 40.0455 111.593 39.6761 111.767 39.2102C111.945 38.7443 112.034 38.2197 112.034 37.6364C112.034 37.0606 111.947 36.5436 111.773 36.0852C111.602 35.6269 111.345 35.2652 111 35C110.659 34.7348 110.233 34.6023 109.722 34.6023C109.229 34.6023 108.812 34.7292 108.472 34.983C108.134 35.2367 107.879 35.5909 107.705 36.0455C107.53 36.5 107.443 37.0303 107.443 37.6364ZM118.197 42.1932C117.644 42.1932 117.144 42.0909 116.697 41.8864C116.25 41.678 115.896 41.3769 115.635 40.983C115.377 40.589 115.249 40.1061 115.249 39.5341C115.249 39.0417 115.343 38.6364 115.533 38.3182C115.722 38 115.978 37.7481 116.3 37.5625C116.622 37.3769 116.982 37.2367 117.379 37.142C117.777 37.0473 118.182 36.9754 118.595 36.9261C119.118 36.8655 119.542 36.8163 119.868 36.7784C120.194 36.7367 120.43 36.6705 120.578 36.5795C120.726 36.4886 120.8 36.3409 120.8 36.1364V36.0966C120.8 35.6004 120.66 35.2159 120.379 34.9432C120.103 34.6705 119.69 34.5341 119.141 34.5341C118.569 34.5341 118.118 34.661 117.788 34.9148C117.463 35.1648 117.237 35.4432 117.112 35.75L115.516 35.3864C115.705 34.8561 115.982 34.428 116.345 34.1023C116.713 33.7727 117.135 33.5341 117.612 33.3864C118.089 33.2348 118.591 33.1591 119.118 33.1591C119.466 33.1591 119.836 33.2008 120.226 33.2841C120.62 33.3636 120.987 33.5114 121.328 33.7273C121.673 33.9432 121.955 34.2519 122.175 34.6534C122.394 35.0511 122.504 35.5682 122.504 36.2045V42H120.845V40.8068H120.777C120.667 41.0265 120.502 41.2424 120.283 41.4545C120.063 41.6667 119.781 41.8428 119.436 41.983C119.091 42.1231 118.679 42.1932 118.197 42.1932ZM118.567 40.8295C119.036 40.8295 119.438 40.7367 119.771 40.5511C120.108 40.3655 120.364 40.1231 120.538 39.8239C120.716 39.5208 120.805 39.197 120.805 38.8523V37.7273C120.745 37.7879 120.627 37.8447 120.453 37.8977C120.283 37.947 120.088 37.9905 119.868 38.0284C119.648 38.0625 119.434 38.0947 119.226 38.125C119.018 38.1515 118.843 38.1742 118.703 38.1932C118.374 38.2348 118.072 38.3049 117.8 38.4034C117.531 38.5019 117.315 38.6439 117.152 38.8295C116.993 39.0114 116.913 39.2538 116.913 39.5568C116.913 39.9773 117.069 40.2955 117.379 40.5114C117.69 40.7235 118.086 40.8295 118.567 40.8295ZM124.767 42V33.2727H126.409V34.6591H126.5C126.659 34.1894 126.939 33.8201 127.341 33.5511C127.746 33.2784 128.205 33.142 128.716 33.142C128.822 33.142 128.947 33.1458 129.091 33.1534C129.239 33.161 129.354 33.1705 129.438 33.1818V34.8068C129.369 34.7879 129.248 34.767 129.074 34.7443C128.9 34.7178 128.725 34.7045 128.551 34.7045C128.15 34.7045 127.792 34.7898 127.477 34.9602C127.167 35.1269 126.92 35.3598 126.739 35.6591C126.557 35.9545 126.466 36.2917 126.466 36.6705V42H124.767ZM133.862 42.1705C133.158 42.1705 132.529 41.9905 131.976 41.6307C131.427 41.267 130.995 40.75 130.68 40.0795C130.37 39.4053 130.214 38.5966 130.214 37.6534C130.214 36.7102 130.372 35.9034 130.686 35.233C131.004 34.5625 131.44 34.0492 131.993 33.6932C132.546 33.3371 133.173 33.1591 133.874 33.1591C134.415 33.1591 134.851 33.25 135.18 33.4318C135.514 33.6098 135.771 33.8182 135.953 34.0568C136.139 34.2955 136.283 34.5057 136.385 34.6875H136.487V30.3636H138.186V42H136.527V40.642H136.385C136.283 40.8277 136.135 41.0398 135.942 41.2784C135.752 41.517 135.491 41.7254 135.158 41.9034C134.824 42.0814 134.393 42.1705 133.862 42.1705ZM134.237 40.7216C134.726 40.7216 135.139 40.5928 135.476 40.3352C135.817 40.0739 136.074 39.7121 136.249 39.25C136.427 38.7879 136.516 38.25 136.516 37.6364C136.516 37.0303 136.429 36.5 136.254 36.0455C136.08 35.5909 135.824 35.2367 135.487 34.983C135.15 34.7292 134.733 34.6023 134.237 34.6023C133.726 34.6023 133.3 34.7348 132.959 35C132.618 35.2652 132.36 35.6269 132.186 36.0852C132.016 36.5436 131.93 37.0606 131.93 37.6364C131.93 38.2197 132.018 38.7443 132.192 39.2102C132.366 39.6761 132.624 40.0455 132.964 40.3182C133.309 40.5871 133.733 40.7216 134.237 40.7216Z" fill="#1570EF"/>
<path d="M38.0101 107.563L38.0109 107.566L38.0108 107.566C38.1775 108.191 37.8185 108.87 37.1849 108.992L31.2478 110.557C31.3215 111.723 30.569 112.812 29.4004 113.116C28.2322 113.443 27.0181 112.87 26.5099 111.83L25.5304 112.097L25.5294 112.097C25.3219 112.149 25.1062 112.045 25.0519 111.829C25.0518 111.829 25.0518 111.829 25.0517 111.829L21.0558 97.1153L19.1567 97.5901L19.1446 97.5416L19.1567 97.5901C18.6676 97.7124 18.1308 97.4196 17.9842 96.9065M38.0101 107.563L18.0323 96.8928M38.0101 107.563L38.0101 107.563L37.57 105.942C37.57 105.942 37.5699 105.942 37.5699 105.941C37.5155 105.725 37.2998 105.622 37.0923 105.674L37.0918 105.674L35.448 106.102L33.6072 99.2678C33.6071 99.2677 33.6071 99.2675 33.6071 99.2674C33.5527 99.0513 33.337 98.9478 33.1295 98.9996L33.1287 98.9998L29.5385 99.9603L28.5553 96.3247C28.5553 96.3245 28.5552 96.3244 28.5552 96.3242C28.5009 96.1082 28.2852 96.0047 28.0776 96.0565L28.0771 96.0567L23.444 97.2723M38.0101 107.563L23.444 97.2723M17.9842 96.9065L18.0323 96.8928M17.9842 96.9065C17.9842 96.9065 17.9842 96.9065 17.9842 96.9065L18.0323 96.8928M17.9842 96.9065C17.8369 96.3908 18.1568 95.8782 18.6674 95.7324L18.6691 95.7319L18.6691 95.7319L22.3993 94.8052M18.0323 96.8928C17.8933 96.4062 18.1944 95.9195 18.6812 95.7804L22.4122 94.8536M22.3993 94.8052C22.399 94.8053 22.3988 94.8054 22.3985 94.8055L22.4122 94.8536M22.3993 94.8052L22.4001 94.805L22.4122 94.8536M22.3993 94.8052C22.5871 94.7522 22.8009 94.8594 22.8545 95.0728L22.8544 95.0724L22.8061 95.0854M22.4122 94.8536C22.5743 94.8073 22.7597 94.9 22.8061 95.0854M22.8061 95.0854L22.8546 95.0732M22.8061 95.0854L23.4086 97.3332L22.8546 95.0732M22.8546 95.0732L23.444 97.2723M22.8546 95.0732L23.444 97.2723M21.6954 96.5786L21.6955 96.5786L21.6946 96.5759C21.6428 96.4206 21.4873 96.2868 21.3227 96.2868H21.2532V96.2854L21.2413 96.2883L18.9703 96.8445L18.9703 96.8445L18.9685 96.845C18.9003 96.8644 18.8474 96.8528 18.8087 96.8273C18.7689 96.8011 18.7397 96.7574 18.7264 96.7065C18.6996 96.6042 18.739 96.4914 18.8567 96.4545L22.2144 95.6094L25.8628 109.048C25.8628 109.048 25.8629 109.049 25.8629 109.049C25.9172 109.265 26.1329 109.368 26.3404 109.317L26.3409 109.316L26.8071 109.195C26.3552 109.741 26.1772 110.462 26.272 111.13L25.6919 111.27L21.6954 96.5786ZM27.0947 111.292L27.0947 111.292C26.8018 110.346 27.3422 109.378 28.2878 109.131L28.2883 109.131C29.2797 108.86 30.2478 109.514 30.4276 110.413L30.4276 110.413L30.4278 110.414C30.63 111.335 30.0466 112.169 29.1885 112.418C28.287 112.666 27.3645 112.17 27.0947 111.292ZM36.9754 108.293L31.0636 109.857C30.8148 109.219 30.2793 108.701 29.6323 108.462C30.256 108.296 30.9237 108.12 31.6118 107.937C33.3835 107.468 35.2904 106.963 36.93 106.525L37.2646 107.774L37.2647 107.775C37.3272 108.004 37.2029 108.23 36.9764 108.292C36.9761 108.292 36.9759 108.292 36.9757 108.293L36.9754 108.293ZM34.7254 106.313L26.5026 108.488L24.7444 102.027L32.9672 99.8508L34.7254 106.313ZM23.6553 98.0176L27.9152 96.8846L28.793 100.148L24.533 101.281L23.6553 98.0176Z" fill="#5D6679" stroke="#5D6679" stroke-width="0.1"/>
<path d="M59.0341 98.3636V110H57.2784V98.3636H59.0341ZM63.1534 104.818V110H61.4545V101.273H63.0852V102.693H63.1932C63.3939 102.231 63.7083 101.86 64.1364 101.58C64.5682 101.299 65.1117 101.159 65.767 101.159C66.3617 101.159 66.8826 101.284 67.3295 101.534C67.7765 101.78 68.1231 102.148 68.3693 102.636C68.6155 103.125 68.7386 103.729 68.7386 104.449V110H67.0398V104.653C67.0398 104.021 66.875 103.527 66.5455 103.17C66.2159 102.811 65.7633 102.631 65.1875 102.631C64.7936 102.631 64.4432 102.716 64.1364 102.886C63.8333 103.057 63.5928 103.307 63.4148 103.636C63.2405 103.962 63.1534 104.356 63.1534 104.818ZM78.1705 101.273L75.0057 110H73.1875L70.017 101.273H71.8409L74.0511 107.989H74.142L76.3466 101.273H78.1705ZM83.2315 110.176C82.3717 110.176 81.6312 109.992 81.0099 109.625C80.3925 109.254 79.9152 108.733 79.5781 108.062C79.2448 107.388 79.0781 106.598 79.0781 105.693C79.0781 104.799 79.2448 104.011 79.5781 103.33C79.9152 102.648 80.3849 102.116 80.9872 101.733C81.5933 101.35 82.3016 101.159 83.1122 101.159C83.6046 101.159 84.0819 101.241 84.544 101.403C85.0062 101.566 85.4209 101.822 85.7884 102.17C86.1558 102.519 86.4455 102.972 86.6577 103.528C86.8698 104.081 86.9759 104.754 86.9759 105.545V106.148H80.0384V104.875H85.3111C85.3111 104.428 85.2202 104.032 85.0384 103.688C84.8565 103.339 84.6009 103.064 84.2713 102.864C83.9455 102.663 83.563 102.562 83.1236 102.562C82.6463 102.562 82.2296 102.68 81.8736 102.915C81.5213 103.146 81.2486 103.449 81.0554 103.824C80.866 104.195 80.7713 104.598 80.7713 105.034V106.028C80.7713 106.612 80.8736 107.108 81.0781 107.517C81.2865 107.926 81.5762 108.239 81.9474 108.455C82.3187 108.667 82.7524 108.773 83.2486 108.773C83.5705 108.773 83.8641 108.727 84.1293 108.636C84.3944 108.542 84.6236 108.402 84.8168 108.216C85.0099 108.03 85.1577 107.801 85.2599 107.528L86.8679 107.818C86.7391 108.292 86.508 108.706 86.1747 109.062C85.8452 109.415 85.4304 109.689 84.9304 109.886C84.4342 110.08 83.8679 110.176 83.2315 110.176ZM90.5597 104.818V110H88.8608V101.273H90.4915V102.693H90.5994C90.8002 102.231 91.1146 101.86 91.5426 101.58C91.9744 101.299 92.518 101.159 93.1733 101.159C93.768 101.159 94.2888 101.284 94.7358 101.534C95.1828 101.78 95.5294 102.148 95.7756 102.636C96.0218 103.125 96.1449 103.729 96.1449 104.449V110H94.446V104.653C94.446 104.021 94.2813 103.527 93.9517 103.17C93.6222 102.811 93.1695 102.631 92.5938 102.631C92.1998 102.631 91.8494 102.716 91.5426 102.886C91.2396 103.057 90.9991 103.307 90.821 103.636C90.6468 103.962 90.5597 104.356 90.5597 104.818ZM102.497 101.273V102.636H97.7301V101.273H102.497ZM99.0085 99.1818H100.707V107.438C100.707 107.767 100.757 108.015 100.855 108.182C100.954 108.345 101.08 108.456 101.236 108.517C101.395 108.574 101.567 108.602 101.753 108.602C101.889 108.602 102.009 108.593 102.111 108.574C102.213 108.555 102.293 108.54 102.349 108.528L102.656 109.932C102.558 109.97 102.418 110.008 102.236 110.045C102.054 110.087 101.827 110.11 101.554 110.114C101.107 110.121 100.69 110.042 100.304 109.875C99.9176 109.708 99.6051 109.451 99.3665 109.102C99.1278 108.754 99.0085 108.316 99.0085 107.79V99.1818ZM107.959 110.176C107.141 110.176 106.427 109.989 105.817 109.614C105.207 109.239 104.733 108.714 104.396 108.04C104.059 107.366 103.891 106.578 103.891 105.676C103.891 104.771 104.059 103.979 104.396 103.301C104.733 102.623 105.207 102.097 105.817 101.722C106.427 101.347 107.141 101.159 107.959 101.159C108.777 101.159 109.491 101.347 110.101 101.722C110.711 102.097 111.184 102.623 111.521 103.301C111.858 103.979 112.027 104.771 112.027 105.676C112.027 106.578 111.858 107.366 111.521 108.04C111.184 108.714 110.711 109.239 110.101 109.614C109.491 109.989 108.777 110.176 107.959 110.176ZM107.964 108.75C108.495 108.75 108.934 108.61 109.283 108.33C109.631 108.049 109.889 107.676 110.055 107.21C110.226 106.744 110.311 106.231 110.311 105.67C110.311 105.114 110.226 104.602 110.055 104.136C109.889 103.667 109.631 103.29 109.283 103.006C108.934 102.722 108.495 102.58 107.964 102.58C107.43 102.58 106.987 102.722 106.635 103.006C106.286 103.29 106.027 103.667 105.857 104.136C105.69 104.602 105.607 105.114 105.607 105.67C105.607 106.231 105.69 106.744 105.857 107.21C106.027 107.676 106.286 108.049 106.635 108.33C106.987 108.61 107.43 108.75 107.964 108.75ZM113.923 110V101.273H115.565V102.659H115.656C115.815 102.189 116.096 101.82 116.497 101.551C116.902 101.278 117.361 101.142 117.872 101.142C117.978 101.142 118.103 101.146 118.247 101.153C118.395 101.161 118.51 101.17 118.594 101.182V102.807C118.526 102.788 118.404 102.767 118.23 102.744C118.056 102.718 117.882 102.705 117.707 102.705C117.306 102.705 116.948 102.79 116.634 102.96C116.323 103.127 116.077 103.36 115.895 103.659C115.713 103.955 115.622 104.292 115.622 104.67V110H113.923ZM121.403 113.273C121.15 113.273 120.919 113.252 120.71 113.21C120.502 113.172 120.347 113.131 120.244 113.085L120.653 111.693C120.964 111.777 121.241 111.813 121.483 111.801C121.725 111.79 121.939 111.699 122.125 111.528C122.314 111.358 122.481 111.08 122.625 110.693L122.835 110.114L119.642 101.273H121.46L123.67 108.045H123.761L125.972 101.273H127.795L124.199 111.165C124.032 111.619 123.82 112.004 123.562 112.318C123.305 112.636 122.998 112.875 122.642 113.034C122.286 113.193 121.873 113.273 121.403 113.273Z" fill="#5D6679"/>
<path d="M32.4445 180.889V172.804C32.4445 172.501 32.7022 172.255 33.0001 172.255C33.3068 172.255 33.5556 172.495 33.5556 172.804V180.889H34.675C35.889 180.889 36.889 179.892 36.889 178.675V165.325C36.889 164.111 35.8919 163.111 34.675 163.111H21.3251C20.1111 163.111 19.1111 164.108 19.1111 165.325V178.675C19.1111 179.889 20.1082 180.889 21.3251 180.889H22.4445V175.59C22.4445 175.278 22.7022 175.024 23.0001 175.024C23.3068 175.024 23.5556 175.27 23.5556 175.59V180.889H25.7778V170.038C25.7778 169.733 26.0355 169.487 26.3334 169.487C26.6403 169.487 26.889 169.724 26.889 170.038V180.889H29.1111V165.886C29.1111 165.581 29.3689 165.333 29.6668 165.333C29.9736 165.333 30.2223 165.581 30.2223 165.886V180.889H32.4445ZM18 165.325C18 163.489 19.5032 162 21.325 162H34.675C36.5113 162 38 163.503 38 165.325V178.675C38 180.511 36.4968 182 34.675 182H21.325C19.4887 182 18 180.497 18 178.675V165.325Z" fill="#5D6679"/>
<path d="M57.2784 178V166.364H61.4261C62.3277 166.364 63.0758 166.519 63.6705 166.83C64.2689 167.14 64.7159 167.57 65.0114 168.119C65.3068 168.665 65.4545 169.295 65.4545 170.011C65.4545 170.723 65.3049 171.35 65.0057 171.892C64.7102 172.43 64.2633 172.848 63.6648 173.148C63.0701 173.447 62.322 173.597 61.4205 173.597H58.2784V172.085H61.2614C61.8295 172.085 62.2917 172.004 62.6477 171.841C63.0076 171.678 63.2708 171.441 63.4375 171.131C63.6042 170.82 63.6875 170.447 63.6875 170.011C63.6875 169.572 63.6023 169.191 63.4318 168.869C63.2652 168.547 63.0019 168.301 62.642 168.131C62.286 167.956 61.8182 167.869 61.2386 167.869H59.0341V178H57.2784ZM63.0227 172.75L65.8977 178H63.8977L61.0795 172.75H63.0227ZM71.1065 178.176C70.2467 178.176 69.5062 177.992 68.8849 177.625C68.2675 177.254 67.7902 176.733 67.4531 176.062C67.1198 175.388 66.9531 174.598 66.9531 173.693C66.9531 172.799 67.1198 172.011 67.4531 171.33C67.7902 170.648 68.2599 170.116 68.8622 169.733C69.4683 169.35 70.1766 169.159 70.9872 169.159C71.4796 169.159 71.9569 169.241 72.419 169.403C72.8812 169.566 73.2959 169.822 73.6634 170.17C74.0308 170.519 74.3205 170.972 74.5327 171.528C74.7448 172.081 74.8509 172.754 74.8509 173.545V174.148H67.9134V172.875H73.1861C73.1861 172.428 73.0952 172.032 72.9134 171.688C72.7315 171.339 72.4759 171.064 72.1463 170.864C71.8205 170.663 71.438 170.562 70.9986 170.562C70.5213 170.562 70.1046 170.68 69.7486 170.915C69.3963 171.146 69.1236 171.449 68.9304 171.824C68.741 172.195 68.6463 172.598 68.6463 173.034V174.028C68.6463 174.612 68.7486 175.108 68.9531 175.517C69.1615 175.926 69.4512 176.239 69.8224 176.455C70.1937 176.667 70.6274 176.773 71.1236 176.773C71.4455 176.773 71.7391 176.727 72.0043 176.636C72.2694 176.542 72.4986 176.402 72.6918 176.216C72.8849 176.03 73.0327 175.801 73.1349 175.528L74.7429 175.818C74.6141 176.292 74.383 176.706 74.0497 177.062C73.7202 177.415 73.3054 177.689 72.8054 177.886C72.3092 178.08 71.7429 178.176 71.1065 178.176ZM76.7358 181.273V169.273H78.3949V170.688H78.5369C78.6354 170.506 78.7775 170.295 78.9631 170.057C79.1487 169.818 79.4063 169.61 79.7358 169.432C80.0653 169.25 80.5009 169.159 81.0426 169.159C81.7472 169.159 82.3759 169.337 82.929 169.693C83.482 170.049 83.9157 170.562 84.2301 171.233C84.5483 171.903 84.7074 172.71 84.7074 173.653C84.7074 174.597 84.5502 175.405 84.2358 176.08C83.9214 176.75 83.4896 177.267 82.9403 177.631C82.3911 177.991 81.7642 178.17 81.0597 178.17C80.5294 178.17 80.0956 178.081 79.7585 177.903C79.4252 177.725 79.1638 177.517 78.9744 177.278C78.785 177.04 78.6392 176.828 78.5369 176.642H78.4347V181.273H76.7358ZM78.4006 173.636C78.4006 174.25 78.4896 174.788 78.6676 175.25C78.8456 175.712 79.1032 176.074 79.4403 176.335C79.7775 176.593 80.1903 176.722 80.679 176.722C81.1866 176.722 81.6108 176.587 81.9517 176.318C82.2926 176.045 82.5502 175.676 82.7244 175.21C82.9025 174.744 82.9915 174.22 82.9915 173.636C82.9915 173.061 82.9044 172.544 82.7301 172.085C82.5597 171.627 82.3021 171.265 81.9574 171C81.6165 170.735 81.1903 170.602 80.679 170.602C80.1866 170.602 79.7699 170.729 79.429 170.983C79.0919 171.237 78.8362 171.591 78.6619 172.045C78.4877 172.5 78.4006 173.03 78.4006 173.636ZM90.2869 178.176C89.4688 178.176 88.7547 177.989 88.1449 177.614C87.535 177.239 87.0616 176.714 86.7244 176.04C86.3873 175.366 86.2188 174.578 86.2188 173.676C86.2188 172.771 86.3873 171.979 86.7244 171.301C87.0616 170.623 87.535 170.097 88.1449 169.722C88.7547 169.347 89.4688 169.159 90.2869 169.159C91.1051 169.159 91.8191 169.347 92.429 169.722C93.0388 170.097 93.5123 170.623 93.8494 171.301C94.1866 171.979 94.3551 172.771 94.3551 173.676C94.3551 174.578 94.1866 175.366 93.8494 176.04C93.5123 176.714 93.0388 177.239 92.429 177.614C91.8191 177.989 91.1051 178.176 90.2869 178.176ZM90.2926 176.75C90.8229 176.75 91.2623 176.61 91.6108 176.33C91.9593 176.049 92.2169 175.676 92.3835 175.21C92.554 174.744 92.6392 174.231 92.6392 173.67C92.6392 173.114 92.554 172.602 92.3835 172.136C92.2169 171.667 91.9593 171.29 91.6108 171.006C91.2623 170.722 90.8229 170.58 90.2926 170.58C89.7585 170.58 89.3153 170.722 88.9631 171.006C88.6146 171.29 88.3551 171.667 88.1847 172.136C88.018 172.602 87.9347 173.114 87.9347 173.67C87.9347 174.231 88.018 174.744 88.1847 175.21C88.3551 175.676 88.6146 176.049 88.9631 176.33C89.3153 176.61 89.7585 176.75 90.2926 176.75ZM96.2514 178V169.273H97.8935V170.659H97.9844C98.1435 170.189 98.4238 169.82 98.8253 169.551C99.2306 169.278 99.6889 169.142 100.2 169.142C100.306 169.142 100.431 169.146 100.575 169.153C100.723 169.161 100.839 169.17 100.922 169.182V170.807C100.854 170.788 100.732 170.767 100.558 170.744C100.384 170.718 100.21 170.705 100.036 170.705C99.634 170.705 99.276 170.79 98.9616 170.96C98.651 171.127 98.4048 171.36 98.223 171.659C98.0412 171.955 97.9503 172.292 97.9503 172.67V178H96.2514ZM106.982 169.273V170.636H102.214V169.273H106.982ZM103.493 167.182H105.192V175.438C105.192 175.767 105.241 176.015 105.339 176.182C105.438 176.345 105.565 176.456 105.72 176.517C105.879 176.574 106.052 176.602 106.237 176.602C106.374 176.602 106.493 176.593 106.595 176.574C106.697 176.555 106.777 176.54 106.834 176.528L107.141 177.932C107.042 177.97 106.902 178.008 106.72 178.045C106.538 178.087 106.311 178.11 106.038 178.114C105.591 178.121 105.175 178.042 104.788 177.875C104.402 177.708 104.089 177.451 103.851 177.102C103.612 176.754 103.493 176.316 103.493 175.79V167.182ZM115.26 171.403L113.72 171.676C113.656 171.479 113.554 171.292 113.413 171.114C113.277 170.936 113.091 170.79 112.857 170.676C112.622 170.562 112.328 170.506 111.976 170.506C111.495 170.506 111.093 170.614 110.771 170.83C110.449 171.042 110.288 171.316 110.288 171.653C110.288 171.945 110.396 172.18 110.612 172.358C110.828 172.536 111.177 172.682 111.658 172.795L113.044 173.114C113.847 173.299 114.446 173.585 114.839 173.972C115.233 174.358 115.43 174.86 115.43 175.477C115.43 176 115.279 176.466 114.976 176.875C114.677 177.28 114.258 177.598 113.72 177.83C113.186 178.061 112.567 178.176 111.862 178.176C110.885 178.176 110.088 177.968 109.47 177.551C108.853 177.131 108.474 176.534 108.334 175.761L109.976 175.511C110.078 175.939 110.288 176.263 110.607 176.483C110.925 176.699 111.339 176.807 111.851 176.807C112.408 176.807 112.853 176.691 113.186 176.46C113.519 176.225 113.686 175.939 113.686 175.602C113.686 175.33 113.584 175.1 113.379 174.915C113.179 174.729 112.87 174.589 112.453 174.494L110.976 174.17C110.161 173.985 109.559 173.689 109.169 173.284C108.783 172.879 108.589 172.366 108.589 171.744C108.589 171.229 108.733 170.778 109.021 170.392C109.309 170.006 109.707 169.705 110.214 169.489C110.722 169.269 111.304 169.159 111.959 169.159C112.902 169.159 113.644 169.364 114.186 169.773C114.728 170.178 115.086 170.722 115.26 171.403Z" fill="#5D6679"/>
<path d="M27.9999 230C22.4861 230 18 234.486 18 240C18 242.465 18.8984 244.723 20.3828 246.468C20.4018 246.498 20.4236 246.525 20.4491 246.551C20.4548 246.557 20.4613 246.56 20.467 246.566C22.3017 248.668 24.9973 250 28 250C31.0027 250 33.6982 248.668 35.533 246.566C35.5387 246.56 35.5455 246.556 35.5509 246.551C35.5764 246.525 35.5984 246.497 35.6172 246.468C37.1016 244.723 38 242.465 38 240C38 234.486 33.5139 230 28.0001 230H27.9999ZM27.9999 249C25.4441 249 23.1357 247.928 21.496 246.211L22.181 245.526C22.8427 244.865 23.7223 244.5 24.6576 244.5H31.3424C32.2776 244.5 33.1572 244.865 33.8188 245.526L34.5038 246.211C32.8642 247.927 30.5557 249 27.9998 249H27.9999ZM35.1561 245.449L34.5259 244.819C33.6754 243.969 32.5449 243.5 31.3424 243.5H24.6576C23.455 243.5 22.3247 243.969 21.4742 244.819L20.844 245.449C19.6883 243.936 19 242.047 19 240C19 235.038 23.0372 231 27.9999 231C32.9624 231 36.9999 235.037 36.9999 240C36.9999 242.047 36.3116 243.936 35.1561 245.449H35.1561ZM27.9999 234.5C25.7945 234.5 23.9999 236.295 23.9999 238.5C23.9999 240.706 25.7943 242.5 27.9999 242.5C30.2054 242.5 32 240.706 32 238.5C32 236.295 30.2054 234.5 27.9999 234.5ZM27.9999 241.5C26.3457 241.5 25 240.154 25 238.5C25 236.846 26.3457 235.5 27.9999 235.5C29.6541 235.5 30.9999 236.846 30.9999 238.5C30.9999 240.154 29.6541 241.5 27.9999 241.5Z" fill="#5D6679"/>
<path d="M63.625 237.42C63.5644 236.883 63.3144 236.466 62.875 236.17C62.4356 235.871 61.8826 235.722 61.2159 235.722C60.7386 235.722 60.3258 235.797 59.9773 235.949C59.6288 236.097 59.358 236.301 59.1648 236.562C58.9754 236.82 58.8807 237.114 58.8807 237.443C58.8807 237.72 58.9451 237.958 59.0739 238.159C59.2064 238.36 59.3788 238.528 59.5909 238.665C59.8068 238.797 60.0379 238.909 60.2841 239C60.5303 239.087 60.767 239.159 60.9943 239.216L62.1307 239.511C62.5019 239.602 62.8826 239.725 63.2727 239.881C63.6629 240.036 64.0246 240.241 64.358 240.494C64.6913 240.748 64.9602 241.062 65.1648 241.438C65.3731 241.812 65.4773 242.261 65.4773 242.784C65.4773 243.443 65.3068 244.028 64.9659 244.54C64.6288 245.051 64.1383 245.455 63.4943 245.75C62.8542 246.045 62.0795 246.193 61.1705 246.193C60.2992 246.193 59.5455 246.055 58.9091 245.778C58.2727 245.502 57.7746 245.11 57.4148 244.602C57.0549 244.091 56.8561 243.485 56.8182 242.784H58.5795C58.6136 243.205 58.75 243.555 58.9886 243.835C59.2311 244.112 59.5398 244.318 59.9148 244.455C60.2936 244.587 60.7083 244.653 61.1591 244.653C61.6553 244.653 62.0966 244.576 62.483 244.42C62.8731 244.261 63.1799 244.042 63.4034 243.761C63.6269 243.477 63.7386 243.146 63.7386 242.767C63.7386 242.422 63.6402 242.14 63.4432 241.92C63.25 241.701 62.9867 241.519 62.6534 241.375C62.3239 241.231 61.9508 241.104 61.5341 240.994L60.1591 240.619C59.2273 240.366 58.4886 239.992 57.9432 239.5C57.4015 239.008 57.1307 238.356 57.1307 237.545C57.1307 236.875 57.3125 236.29 57.6761 235.79C58.0398 235.29 58.5322 234.902 59.1534 234.625C59.7746 234.345 60.4754 234.205 61.2557 234.205C62.0436 234.205 62.7386 234.343 63.3409 234.619C63.947 234.896 64.4242 235.277 64.7727 235.761C65.1212 236.242 65.303 236.795 65.3182 237.42H63.625ZM72.9673 242.381V237.273H74.6719V246H73.0014V244.489H72.9105C72.7098 244.955 72.3878 245.343 71.9446 245.653C71.5052 245.96 70.9579 246.114 70.3026 246.114C69.742 246.114 69.2457 245.991 68.8139 245.744C68.3859 245.494 68.0488 245.125 67.8026 244.636C67.5601 244.148 67.4389 243.544 67.4389 242.824V237.273H69.1378V242.619C69.1378 243.214 69.3026 243.687 69.6321 244.04C69.9616 244.392 70.3897 244.568 70.9162 244.568C71.2344 244.568 71.5507 244.489 71.8651 244.33C72.1832 244.17 72.4465 243.93 72.6548 243.608C72.867 243.286 72.9711 242.877 72.9673 242.381ZM76.9545 249.273V237.273H78.6136V238.688H78.7557C78.8542 238.506 78.9962 238.295 79.1818 238.057C79.3674 237.818 79.625 237.61 79.9545 237.432C80.2841 237.25 80.7197 237.159 81.2614 237.159C81.9659 237.159 82.5947 237.337 83.1477 237.693C83.7008 238.049 84.1345 238.562 84.4489 239.233C84.767 239.903 84.9261 240.71 84.9261 241.653C84.9261 242.597 84.7689 243.405 84.4545 244.08C84.1402 244.75 83.7083 245.267 83.1591 245.631C82.6098 245.991 81.983 246.17 81.2784 246.17C80.7481 246.17 80.3144 246.081 79.9773 245.903C79.6439 245.725 79.3826 245.517 79.1932 245.278C79.0038 245.04 78.858 244.828 78.7557 244.642H78.6534V249.273H76.9545ZM78.6193 241.636C78.6193 242.25 78.7083 242.788 78.8864 243.25C79.0644 243.712 79.322 244.074 79.6591 244.335C79.9962 244.593 80.4091 244.722 80.8977 244.722C81.4053 244.722 81.8295 244.587 82.1705 244.318C82.5114 244.045 82.7689 243.676 82.9432 243.21C83.1212 242.744 83.2102 242.22 83.2102 241.636C83.2102 241.061 83.1231 240.544 82.9489 240.085C82.7784 239.627 82.5208 239.265 82.1761 239C81.8352 238.735 81.4091 238.602 80.8977 238.602C80.4053 238.602 79.9886 238.729 79.6477 238.983C79.3106 239.237 79.0549 239.591 78.8807 240.045C78.7064 240.5 78.6193 241.03 78.6193 241.636ZM86.8295 249.273V237.273H88.4886V238.688H88.6307C88.7292 238.506 88.8712 238.295 89.0568 238.057C89.2424 237.818 89.5 237.61 89.8295 237.432C90.1591 237.25 90.5947 237.159 91.1364 237.159C91.8409 237.159 92.4697 237.337 93.0227 237.693C93.5758 238.049 94.0095 238.562 94.3239 239.233C94.642 239.903 94.8011 240.71 94.8011 241.653C94.8011 242.597 94.6439 243.405 94.3295 244.08C94.0152 244.75 93.5833 245.267 93.0341 245.631C92.4848 245.991 91.858 246.17 91.1534 246.17C90.6231 246.17 90.1894 246.081 89.8523 245.903C89.5189 245.725 89.2576 245.517 89.0682 245.278C88.8788 245.04 88.733 244.828 88.6307 244.642H88.5284V249.273H86.8295ZM88.4943 241.636C88.4943 242.25 88.5833 242.788 88.7614 243.25C88.9394 243.712 89.197 244.074 89.5341 244.335C89.8712 244.593 90.2841 244.722 90.7727 244.722C91.2803 244.722 91.7045 244.587 92.0455 244.318C92.3864 244.045 92.6439 243.676 92.8182 243.21C92.9962 242.744 93.0852 242.22 93.0852 241.636C93.0852 241.061 92.9981 240.544 92.8239 240.085C92.6534 239.627 92.3958 239.265 92.0511 239C91.7102 238.735 91.2841 238.602 90.7727 238.602C90.2803 238.602 89.8636 238.729 89.5227 238.983C89.1856 239.237 88.9299 239.591 88.7557 240.045C88.5814 240.5 88.4943 241.03 88.4943 241.636ZM98.4034 234.364V246H96.7045V234.364H98.4034ZM100.689 246V237.273H102.388V246H100.689ZM101.547 235.926C101.251 235.926 100.998 235.828 100.786 235.631C100.577 235.43 100.473 235.191 100.473 234.915C100.473 234.634 100.577 234.396 100.786 234.199C100.998 233.998 101.251 233.898 101.547 233.898C101.842 233.898 102.094 233.998 102.303 234.199C102.515 234.396 102.621 234.634 102.621 234.915C102.621 235.191 102.515 235.43 102.303 235.631C102.094 235.828 101.842 235.926 101.547 235.926ZM108.435 246.176C107.575 246.176 106.834 245.992 106.213 245.625C105.596 245.254 105.118 244.733 104.781 244.062C104.448 243.388 104.281 242.598 104.281 241.693C104.281 240.799 104.448 240.011 104.781 239.33C105.118 238.648 105.588 238.116 106.19 237.733C106.796 237.35 107.505 237.159 108.315 237.159C108.808 237.159 109.285 237.241 109.747 237.403C110.209 237.566 110.624 237.822 110.991 238.17C111.359 238.519 111.649 238.972 111.861 239.528C112.073 240.081 112.179 240.754 112.179 241.545V242.148H105.241V240.875H110.514C110.514 240.428 110.423 240.032 110.241 239.688C110.06 239.339 109.804 239.064 109.474 238.864C109.149 238.663 108.766 238.562 108.327 238.562C107.849 238.562 107.433 238.68 107.077 238.915C106.724 239.146 106.452 239.449 106.259 239.824C106.069 240.195 105.974 240.598 105.974 241.034V242.028C105.974 242.612 106.077 243.108 106.281 243.517C106.49 243.926 106.779 244.239 107.151 244.455C107.522 244.667 107.955 244.773 108.452 244.773C108.774 244.773 109.067 244.727 109.332 244.636C109.598 244.542 109.827 244.402 110.02 244.216C110.213 244.03 110.361 243.801 110.463 243.528L112.071 243.818C111.942 244.292 111.711 244.706 111.378 245.062C111.048 245.415 110.634 245.689 110.134 245.886C109.637 246.08 109.071 246.176 108.435 246.176ZM114.064 246V237.273H115.706V238.659H115.797C115.956 238.189 116.236 237.82 116.638 237.551C117.043 237.278 117.501 237.142 118.013 237.142C118.119 237.142 118.244 237.146 118.388 237.153C118.536 237.161 118.651 237.17 118.734 237.182V238.807C118.666 238.788 118.545 238.767 118.371 238.744C118.196 238.718 118.022 238.705 117.848 238.705C117.446 238.705 117.089 238.79 116.774 238.96C116.464 239.127 116.217 239.36 116.036 239.659C115.854 239.955 115.763 240.292 115.763 240.67V246H114.064ZM126.744 239.403L125.205 239.676C125.14 239.479 125.038 239.292 124.898 239.114C124.761 238.936 124.576 238.79 124.341 238.676C124.106 238.562 123.813 238.506 123.46 238.506C122.979 238.506 122.578 238.614 122.256 238.83C121.934 239.042 121.773 239.316 121.773 239.653C121.773 239.945 121.881 240.18 122.097 240.358C122.313 240.536 122.661 240.682 123.142 240.795L124.528 241.114C125.331 241.299 125.93 241.585 126.324 241.972C126.718 242.358 126.915 242.86 126.915 243.477C126.915 244 126.763 244.466 126.46 244.875C126.161 245.28 125.742 245.598 125.205 245.83C124.67 246.061 124.051 246.176 123.347 246.176C122.369 246.176 121.572 245.968 120.955 245.551C120.337 245.131 119.958 244.534 119.818 243.761L121.46 243.511C121.563 243.939 121.773 244.263 122.091 244.483C122.409 244.699 122.824 244.807 123.335 244.807C123.892 244.807 124.337 244.691 124.67 244.46C125.004 244.225 125.17 243.939 125.17 243.602C125.17 243.33 125.068 243.1 124.864 242.915C124.663 242.729 124.354 242.589 123.938 242.494L122.46 242.17C121.646 241.985 121.044 241.689 120.653 241.284C120.267 240.879 120.074 240.366 120.074 239.744C120.074 239.229 120.218 238.778 120.506 238.392C120.794 238.006 121.191 237.705 121.699 237.489C122.206 237.269 122.788 237.159 123.443 237.159C124.386 237.159 125.129 237.364 125.67 237.773C126.212 238.178 126.57 238.722 126.744 239.403Z" fill="#5D6679"/>
<path d="M23.187 317.378L23.187 317.378L23.1886 317.379C23.2192 317.41 23.2538 317.437 23.2959 317.456C23.3385 317.474 23.3835 317.483 23.4323 317.483H37.753C37.8498 317.483 37.9382 317.45 38.0028 317.385C38.0673 317.321 38.1 317.233 38.1 317.136L38.0998 302.815C38.0998 302.687 38.0357 302.571 37.9191 302.526L31.2813 298.593C31.2551 298.558 31.2202 298.538 31.1847 298.527C31.1493 298.517 31.1121 298.517 31.0901 298.517L31.0863 298.517H18.247C18.1502 298.517 18.0618 298.55 17.9973 298.615C17.9327 298.679 17.9 298.768 17.9 298.864V311.704C17.9 311.752 17.9082 311.797 17.9271 311.84C17.9456 311.882 17.9722 311.916 18.0025 311.947C18.0028 311.947 18.0031 311.947 18.0033 311.947L23.187 317.378ZM37.406 316.789H23.7791V303.162H28.5173V306.765C28.5173 306.862 28.5499 306.951 28.6144 307.015C28.6789 307.08 28.7674 307.112 28.8643 307.112H32.0741C32.1709 307.112 32.2593 307.08 32.3239 307.015C32.3884 306.951 32.4211 306.862 32.4211 306.765L32.4209 303.162H37.406L37.406 316.789ZM29.2111 306.418V303.162H31.7272V306.418H29.2111ZM27.5402 299.211H30.9849L36.4748 302.468H32.4253L27.5402 299.211ZM28.9685 302.468L24.0834 299.211L26.2908 299.211L31.1759 302.468L28.9685 302.468ZM23.5401 302.468L19.283 299.211L22.834 299.211L27.7191 302.468L23.5401 302.468ZM18.5941 311.565V299.56L23.0854 302.988V316.269L18.5941 311.565Z" fill="#5D6679" stroke="#5D6679" stroke-width="0.2"/>
<path d="M67.3864 308.182C67.3864 309.424 67.1591 310.492 66.7045 311.386C66.25 312.277 65.6269 312.962 64.8352 313.443C64.0473 313.92 63.1515 314.159 62.1477 314.159C61.1402 314.159 60.2405 313.92 59.4489 313.443C58.661 312.962 58.0398 312.275 57.5852 311.381C57.1307 310.487 56.9034 309.42 56.9034 308.182C56.9034 306.939 57.1307 305.873 57.5852 304.983C58.0398 304.089 58.661 303.403 59.4489 302.926C60.2405 302.445 61.1402 302.205 62.1477 302.205C63.1515 302.205 64.0473 302.445 64.8352 302.926C65.6269 303.403 66.25 304.089 66.7045 304.983C67.1591 305.873 67.3864 306.939 67.3864 308.182ZM65.6477 308.182C65.6477 307.235 65.4943 306.437 65.1875 305.79C64.8845 305.138 64.4678 304.646 63.9375 304.312C63.411 303.975 62.8144 303.807 62.1477 303.807C61.4773 303.807 60.8788 303.975 60.3523 304.312C59.8258 304.646 59.4091 305.138 59.1023 305.79C58.7992 306.437 58.6477 307.235 58.6477 308.182C58.6477 309.129 58.7992 309.928 59.1023 310.58C59.4091 311.227 59.8258 311.72 60.3523 312.057C60.8788 312.39 61.4773 312.557 62.1477 312.557C62.8144 312.557 63.411 312.39 63.9375 312.057C64.4678 311.72 64.8845 311.227 65.1875 310.58C65.4943 309.928 65.6477 309.129 65.6477 308.182ZM69.4389 314V305.273H71.081V306.659H71.1719C71.331 306.189 71.6113 305.82 72.0128 305.551C72.4181 305.278 72.8764 305.142 73.3878 305.142C73.4938 305.142 73.6188 305.146 73.7628 305.153C73.9105 305.161 74.026 305.17 74.1094 305.182V306.807C74.0412 306.788 73.92 306.767 73.7457 306.744C73.5715 306.718 73.3973 306.705 73.223 306.705C72.8215 306.705 72.4635 306.79 72.1491 306.96C71.8385 307.127 71.5923 307.36 71.4105 307.659C71.2287 307.955 71.1378 308.292 71.1378 308.67V314H69.4389ZM78.5341 314.17C77.8295 314.17 77.2008 313.991 76.6477 313.631C76.0985 313.267 75.6667 312.75 75.3523 312.08C75.0417 311.405 74.8864 310.597 74.8864 309.653C74.8864 308.71 75.0436 307.903 75.358 307.233C75.6761 306.562 76.1117 306.049 76.6648 305.693C77.2178 305.337 77.8447 305.159 78.5455 305.159C79.0871 305.159 79.5227 305.25 79.8523 305.432C80.1856 305.61 80.4432 305.818 80.625 306.057C80.8106 306.295 80.9545 306.506 81.0568 306.688H81.1591V302.364H82.858V314H81.1989V312.642H81.0568C80.9545 312.828 80.8068 313.04 80.6136 313.278C80.4242 313.517 80.1629 313.725 79.8295 313.903C79.4962 314.081 79.0644 314.17 78.5341 314.17ZM78.9091 312.722C79.3977 312.722 79.8106 312.593 80.1477 312.335C80.4886 312.074 80.7462 311.712 80.9205 311.25C81.0985 310.788 81.1875 310.25 81.1875 309.636C81.1875 309.03 81.1004 308.5 80.9261 308.045C80.7519 307.591 80.4962 307.237 80.1591 306.983C79.822 306.729 79.4053 306.602 78.9091 306.602C78.3977 306.602 77.9716 306.735 77.6307 307C77.2898 307.265 77.0322 307.627 76.858 308.085C76.6875 308.544 76.6023 309.061 76.6023 309.636C76.6023 310.22 76.6894 310.744 76.8636 311.21C77.0379 311.676 77.2955 312.045 77.6364 312.318C77.9811 312.587 78.4053 312.722 78.9091 312.722ZM89.044 314.176C88.1842 314.176 87.4437 313.992 86.8224 313.625C86.205 313.254 85.7277 312.733 85.3906 312.062C85.0573 311.388 84.8906 310.598 84.8906 309.693C84.8906 308.799 85.0573 308.011 85.3906 307.33C85.7277 306.648 86.1974 306.116 86.7997 305.733C87.4058 305.35 88.1141 305.159 88.9247 305.159C89.4171 305.159 89.8944 305.241 90.3565 305.403C90.8187 305.566 91.2334 305.822 91.6009 306.17C91.9683 306.519 92.258 306.972 92.4702 307.528C92.6823 308.081 92.7884 308.754 92.7884 309.545V310.148H85.8509V308.875H91.1236C91.1236 308.428 91.0327 308.032 90.8509 307.688C90.669 307.339 90.4134 307.064 90.0838 306.864C89.758 306.663 89.3755 306.562 88.9361 306.562C88.4588 306.562 88.0421 306.68 87.6861 306.915C87.3338 307.146 87.0611 307.449 86.8679 307.824C86.6785 308.195 86.5838 308.598 86.5838 309.034V310.028C86.5838 310.612 86.6861 311.108 86.8906 311.517C87.099 311.926 87.3887 312.239 87.7599 312.455C88.1312 312.667 88.5649 312.773 89.0611 312.773C89.383 312.773 89.6766 312.727 89.9418 312.636C90.2069 312.542 90.4361 312.402 90.6293 312.216C90.8224 312.03 90.9702 311.801 91.0724 311.528L92.6804 311.818C92.5516 312.292 92.3205 312.706 91.9872 313.062C91.6577 313.415 91.2429 313.689 90.7429 313.886C90.2467 314.08 89.6804 314.176 89.044 314.176ZM94.6733 314V305.273H96.3153V306.659H96.4062C96.5653 306.189 96.8456 305.82 97.2472 305.551C97.6525 305.278 98.1108 305.142 98.6222 305.142C98.7282 305.142 98.8532 305.146 98.9972 305.153C99.1449 305.161 99.2604 305.17 99.3438 305.182V306.807C99.2756 306.788 99.1544 306.767 98.9801 306.744C98.8059 306.718 98.6316 306.705 98.4574 306.705C98.0559 306.705 97.6979 306.79 97.3835 306.96C97.0729 307.127 96.8267 307.36 96.6449 307.659C96.4631 307.955 96.3722 308.292 96.3722 308.67V314H94.6733ZM107.354 307.403L105.814 307.676C105.75 307.479 105.647 307.292 105.507 307.114C105.371 306.936 105.185 306.79 104.95 306.676C104.715 306.562 104.422 306.506 104.07 306.506C103.589 306.506 103.187 306.614 102.865 306.83C102.543 307.042 102.382 307.316 102.382 307.653C102.382 307.945 102.49 308.18 102.706 308.358C102.922 308.536 103.27 308.682 103.751 308.795L105.138 309.114C105.941 309.299 106.539 309.585 106.933 309.972C107.327 310.358 107.524 310.86 107.524 311.477C107.524 312 107.373 312.466 107.07 312.875C106.77 313.28 106.352 313.598 105.814 313.83C105.28 314.061 104.661 314.176 103.956 314.176C102.979 314.176 102.181 313.968 101.564 313.551C100.946 313.131 100.568 312.534 100.428 311.761L102.07 311.511C102.172 311.939 102.382 312.263 102.7 312.483C103.018 312.699 103.433 312.807 103.945 312.807C104.501 312.807 104.946 312.691 105.28 312.46C105.613 312.225 105.78 311.939 105.78 311.602C105.78 311.33 105.678 311.1 105.473 310.915C105.272 310.729 104.964 310.589 104.547 310.494L103.07 310.17C102.255 309.985 101.653 309.689 101.263 309.284C100.876 308.879 100.683 308.366 100.683 307.744C100.683 307.229 100.827 306.778 101.115 306.392C101.403 306.006 101.801 305.705 102.308 305.489C102.816 305.269 103.397 305.159 104.053 305.159C104.996 305.159 105.738 305.364 106.28 305.773C106.821 306.178 107.179 306.722 107.354 307.403Z" fill="#5D6679"/>
<path d="M27.0229 381.855H25.6488C25.5572 381.855 25.4961 381.916 25.4961 382.007C25.4961 382.099 25.5572 382.16 25.6488 382.16H27.0229C27.1144 382.16 27.1756 382.099 27.1756 382.007C27.1756 381.931 27.0993 381.855 27.0229 381.855Z" fill="#5D6679"/>
<path d="M35.6773 366.846C35.2276 366.397 34.63 366.149 33.9934 366.149L22.5662 366.149C21.9296 366.149 21.3324 366.396 20.8823 366.846C20.4325 367.296 20.1851 367.893 20.1851 368.53V383.768C20.1851 384.404 20.4325 385.002 20.8823 385.452C21.332 385.901 21.9296 386.149 22.5662 386.149H33.9949C34.6314 386.149 35.2287 385.901 35.6788 385.452C36.1285 385.002 36.376 384.404 36.376 383.768V368.53C36.3748 367.894 36.1274 367.296 35.6776 366.846L35.6773 366.846ZM35.4229 383.769C35.4229 384.557 34.7825 385.197 33.9946 385.197H22.5658C21.7779 385.197 21.1375 384.557 21.1375 383.769V368.53C21.1375 367.742 21.7779 367.102 22.5658 367.102H33.9946C34.7825 367.102 35.4229 367.742 35.4229 368.53V383.769Z" fill="#5D6679"/>
<path d="M26.0385 374.86L24.4704 376.428L23.855 375.813C23.6693 375.627 23.3671 375.627 23.1817 375.813C22.9961 375.999 22.9961 376.301 23.1817 376.486L24.1344 377.439C24.2243 377.529 24.3448 377.579 24.4715 377.579C24.5981 377.579 24.7189 377.529 24.8085 377.439L26.7136 375.534C26.8993 375.348 26.8993 375.046 26.7136 374.861C26.528 374.675 26.2238 374.674 26.0384 374.86L26.0385 374.86Z" fill="#5D6679"/>
<path d="M26.0385 379.621L24.4704 381.189L23.855 380.574C23.6693 380.388 23.3671 380.388 23.1817 380.574C22.9961 380.759 22.9961 381.062 23.1817 381.247L24.1344 382.2C24.2243 382.29 24.3448 382.34 24.4715 382.34C24.5981 382.34 24.7189 382.29 24.8085 382.2L26.7136 380.295C26.8993 380.109 26.8993 379.807 26.7136 379.621C26.528 379.435 26.2238 379.435 26.0384 379.621L26.0385 379.621Z" fill="#5D6679"/>
<path d="M26.0385 370.098L24.4704 371.666L23.855 371.05C23.6693 370.865 23.3671 370.865 23.1817 371.05C22.9961 371.236 22.9961 371.538 23.1817 371.724L24.1344 372.676C24.2243 372.766 24.3448 372.816 24.4715 372.816C24.5981 372.816 24.7189 372.766 24.8085 372.676L26.7136 370.771C26.8993 370.586 26.8993 370.283 26.7136 370.098C26.528 369.912 26.2238 369.912 26.0384 370.098L26.0385 370.098Z" fill="#5D6679"/>
<path d="M33.0425 375.673H28.2804C28.0171 375.673 27.8044 375.887 27.8044 376.149C27.8044 376.411 28.0179 376.625 28.2804 376.625H33.0425C33.3058 376.625 33.5185 376.411 33.5185 376.149C33.5185 375.886 33.305 375.673 33.0425 375.673Z" fill="#5D6679"/>
<path d="M33.0425 381.387H28.2804C28.0171 381.387 27.8044 381.601 27.8044 381.863C27.8044 382.126 28.0179 382.339 28.2804 382.339H33.0425C33.3058 382.339 33.5185 382.126 33.5185 381.863C33.5185 381.601 33.305 381.387 33.0425 381.387Z" fill="#5D6679"/>
<path d="M33.0425 370.911H28.2804C28.0171 370.911 27.8044 371.124 27.8044 371.387C27.8044 371.649 28.0179 371.863 28.2804 371.863H33.0425C33.3058 371.863 33.5185 371.649 33.5185 371.387C33.5185 371.124 33.305 370.911 33.0425 370.911Z" fill="#5D6679"/>
<path d="M27.0229 382.923H25.6488C25.5572 382.923 25.4961 382.984 25.4961 383.076C25.4961 383.168 25.5572 383.229 25.6488 383.229H27.0229C27.1144 383.229 27.1756 383.168 27.1756 383.076C27.1756 382.984 27.0993 382.923 27.0229 382.923Z" fill="#5D6679"/>
<path d="M57.2784 370.364H59.4091L63.1136 379.409H63.25L66.9545 370.364H69.0852V382H67.4148V373.58H67.3068L63.875 381.983H62.4886L59.0568 373.574H58.9489V382H57.2784V370.364ZM74.0412 382.193C73.4882 382.193 72.9882 382.091 72.5412 381.886C72.0942 381.678 71.7401 381.377 71.4787 380.983C71.2211 380.589 71.0923 380.106 71.0923 379.534C71.0923 379.042 71.187 378.636 71.3764 378.318C71.5658 378 71.8215 377.748 72.1435 377.562C72.4654 377.377 72.8253 377.237 73.223 377.142C73.6207 377.047 74.026 376.975 74.4389 376.926C74.9616 376.866 75.3859 376.816 75.7116 376.778C76.0374 376.737 76.2741 376.67 76.4219 376.58C76.5696 376.489 76.6435 376.341 76.6435 376.136V376.097C76.6435 375.6 76.5033 375.216 76.223 374.943C75.9465 374.67 75.5336 374.534 74.9844 374.534C74.4124 374.534 73.9616 374.661 73.6321 374.915C73.3063 375.165 73.081 375.443 72.956 375.75L71.3594 375.386C71.5488 374.856 71.8253 374.428 72.1889 374.102C72.5563 373.773 72.9787 373.534 73.456 373.386C73.9332 373.235 74.4351 373.159 74.9616 373.159C75.3101 373.159 75.6795 373.201 76.0696 373.284C76.4635 373.364 76.831 373.511 77.1719 373.727C77.5166 373.943 77.7988 374.252 78.0185 374.653C78.2382 375.051 78.348 375.568 78.348 376.205V382H76.6889V380.807H76.6207C76.5109 381.027 76.3461 381.242 76.1264 381.455C75.9067 381.667 75.6245 381.843 75.2798 381.983C74.9351 382.123 74.5223 382.193 74.0412 382.193ZM74.4105 380.83C74.8802 380.83 75.2817 380.737 75.6151 380.551C75.9522 380.366 76.2079 380.123 76.3821 379.824C76.5601 379.521 76.6491 379.197 76.6491 378.852V377.727C76.5885 377.788 76.4711 377.845 76.2969 377.898C76.1264 377.947 75.9313 377.991 75.7116 378.028C75.492 378.062 75.2779 378.095 75.0696 378.125C74.8613 378.152 74.687 378.174 74.5469 378.193C74.2173 378.235 73.9162 378.305 73.6435 378.403C73.3745 378.502 73.1586 378.644 72.9957 378.83C72.8366 379.011 72.7571 379.254 72.7571 379.557C72.7571 379.977 72.9124 380.295 73.223 380.511C73.5336 380.723 73.9295 380.83 74.4105 380.83ZM82.3097 376.818V382H80.6108V373.273H82.2415V374.693H82.3494C82.5502 374.231 82.8646 373.86 83.2926 373.58C83.7244 373.299 84.268 373.159 84.9233 373.159C85.518 373.159 86.0388 373.284 86.4858 373.534C86.9328 373.78 87.2794 374.148 87.5256 374.636C87.7718 375.125 87.8949 375.729 87.8949 376.449V382H86.196V376.653C86.196 376.021 86.0313 375.527 85.7017 375.17C85.3722 374.811 84.9195 374.631 84.3438 374.631C83.9498 374.631 83.5994 374.716 83.2926 374.886C82.9896 375.057 82.7491 375.307 82.571 375.636C82.3968 375.962 82.3097 376.356 82.3097 376.818ZM92.7131 382.193C92.16 382.193 91.66 382.091 91.2131 381.886C90.7661 381.678 90.4119 381.377 90.1506 380.983C89.893 380.589 89.7642 380.106 89.7642 379.534C89.7642 379.042 89.8589 378.636 90.0483 378.318C90.2377 378 90.4934 377.748 90.8153 377.562C91.1373 377.377 91.4972 377.237 91.8949 377.142C92.2926 377.047 92.6979 376.975 93.1108 376.926C93.6335 376.866 94.0578 376.816 94.3835 376.778C94.7093 376.737 94.946 376.67 95.0938 376.58C95.2415 376.489 95.3153 376.341 95.3153 376.136V376.097C95.3153 375.6 95.1752 375.216 94.8949 374.943C94.6184 374.67 94.2055 374.534 93.6562 374.534C93.0843 374.534 92.6335 374.661 92.304 374.915C91.9782 375.165 91.7528 375.443 91.6278 375.75L90.0312 375.386C90.2206 374.856 90.4972 374.428 90.8608 374.102C91.2282 373.773 91.6506 373.534 92.1278 373.386C92.6051 373.235 93.107 373.159 93.6335 373.159C93.982 373.159 94.3513 373.201 94.7415 373.284C95.1354 373.364 95.5028 373.511 95.8438 373.727C96.1884 373.943 96.4706 374.252 96.6903 374.653C96.91 375.051 97.0199 375.568 97.0199 376.205V382H95.3608V380.807H95.2926C95.1828 381.027 95.018 381.242 94.7983 381.455C94.5786 381.667 94.2964 381.843 93.9517 381.983C93.607 382.123 93.1941 382.193 92.7131 382.193ZM93.0824 380.83C93.5521 380.83 93.9536 380.737 94.2869 380.551C94.6241 380.366 94.8797 380.123 95.054 379.824C95.232 379.521 95.321 379.197 95.321 378.852V377.727C95.2604 377.788 95.143 377.845 94.9688 377.898C94.7983 377.947 94.6032 377.991 94.3835 378.028C94.1638 378.062 93.9498 378.095 93.7415 378.125C93.5331 378.152 93.3589 378.174 93.2188 378.193C92.8892 378.235 92.5881 378.305 92.3153 378.403C92.0464 378.502 91.8305 378.644 91.6676 378.83C91.5085 379.011 91.429 379.254 91.429 379.557C91.429 379.977 91.5843 380.295 91.8949 380.511C92.2055 380.723 92.6013 380.83 93.0824 380.83ZM102.942 385.455C102.249 385.455 101.652 385.364 101.152 385.182C100.656 385 100.25 384.759 99.9361 384.46C99.6217 384.161 99.3868 383.833 99.2315 383.477L100.692 382.875C100.794 383.042 100.93 383.218 101.101 383.403C101.275 383.593 101.51 383.754 101.805 383.886C102.105 384.019 102.489 384.085 102.959 384.085C103.603 384.085 104.135 383.928 104.555 383.614C104.976 383.303 105.186 382.807 105.186 382.125V380.409H105.078C104.976 380.595 104.828 380.801 104.635 381.028C104.446 381.256 104.184 381.453 103.851 381.619C103.518 381.786 103.084 381.869 102.55 381.869C101.86 381.869 101.239 381.708 100.686 381.386C100.137 381.061 99.7012 380.581 99.3793 379.949C99.0611 379.312 98.902 378.53 98.902 377.602C98.902 376.674 99.0592 375.879 99.3736 375.216C99.6918 374.553 100.127 374.045 100.68 373.693C101.233 373.337 101.86 373.159 102.561 373.159C103.103 373.159 103.54 373.25 103.874 373.432C104.207 373.61 104.466 373.818 104.652 374.057C104.841 374.295 104.987 374.506 105.089 374.688H105.214V373.273H106.879V382.193C106.879 382.943 106.705 383.559 106.357 384.04C106.008 384.521 105.536 384.877 104.942 385.108C104.351 385.339 103.684 385.455 102.942 385.455ZM102.925 380.46C103.413 380.46 103.826 380.347 104.163 380.119C104.504 379.888 104.762 379.559 104.936 379.131C105.114 378.699 105.203 378.182 105.203 377.58C105.203 376.992 105.116 376.475 104.942 376.028C104.768 375.581 104.512 375.233 104.175 374.983C103.838 374.729 103.421 374.602 102.925 374.602C102.413 374.602 101.987 374.735 101.646 375C101.305 375.261 101.048 375.617 100.874 376.068C100.703 376.519 100.618 377.023 100.618 377.58C100.618 378.152 100.705 378.653 100.879 379.085C101.054 379.517 101.311 379.854 101.652 380.097C101.997 380.339 102.421 380.46 102.925 380.46ZM112.919 382.176C112.059 382.176 111.319 381.992 110.697 381.625C110.08 381.254 109.603 380.733 109.266 380.062C108.932 379.388 108.766 378.598 108.766 377.693C108.766 376.799 108.932 376.011 109.266 375.33C109.603 374.648 110.072 374.116 110.675 373.733C111.281 373.35 111.989 373.159 112.8 373.159C113.292 373.159 113.769 373.241 114.232 373.403C114.694 373.566 115.108 373.822 115.476 374.17C115.843 374.519 116.133 374.972 116.345 375.528C116.557 376.081 116.663 376.754 116.663 377.545V378.148H109.726V376.875H114.999C114.999 376.428 114.908 376.032 114.726 375.688C114.544 375.339 114.288 375.064 113.959 374.864C113.633 374.663 113.25 374.562 112.811 374.562C112.334 374.562 111.917 374.68 111.561 374.915C111.209 375.146 110.936 375.449 110.743 375.824C110.554 376.195 110.459 376.598 110.459 377.034V378.028C110.459 378.612 110.561 379.108 110.766 379.517C110.974 379.926 111.264 380.239 111.635 380.455C112.006 380.667 112.44 380.773 112.936 380.773C113.258 380.773 113.552 380.727 113.817 380.636C114.082 380.542 114.311 380.402 114.504 380.216C114.697 380.03 114.845 379.801 114.947 379.528L116.555 379.818C116.427 380.292 116.196 380.706 115.862 381.062C115.533 381.415 115.118 381.689 114.618 381.886C114.122 382.08 113.555 382.176 112.919 382.176ZM129.266 373.42C129.205 372.883 128.955 372.466 128.516 372.17C128.076 371.871 127.523 371.722 126.857 371.722C126.379 371.722 125.966 371.797 125.618 371.949C125.269 372.097 124.999 372.301 124.805 372.562C124.616 372.82 124.521 373.114 124.521 373.443C124.521 373.72 124.586 373.958 124.714 374.159C124.847 374.36 125.019 374.528 125.232 374.665C125.447 374.797 125.679 374.909 125.925 375C126.171 375.087 126.408 375.159 126.635 375.216L127.771 375.511C128.143 375.602 128.523 375.725 128.913 375.881C129.304 376.036 129.665 376.241 129.999 376.494C130.332 376.748 130.601 377.062 130.805 377.438C131.014 377.812 131.118 378.261 131.118 378.784C131.118 379.443 130.947 380.028 130.607 380.54C130.269 381.051 129.779 381.455 129.135 381.75C128.495 382.045 127.72 382.193 126.811 382.193C125.94 382.193 125.186 382.055 124.55 381.778C123.913 381.502 123.415 381.11 123.055 380.602C122.696 380.091 122.497 379.485 122.459 378.784H124.22C124.254 379.205 124.391 379.555 124.629 379.835C124.872 380.112 125.18 380.318 125.555 380.455C125.934 380.587 126.349 380.653 126.8 380.653C127.296 380.653 127.737 380.576 128.124 380.42C128.514 380.261 128.821 380.042 129.044 379.761C129.268 379.477 129.379 379.146 129.379 378.767C129.379 378.422 129.281 378.14 129.084 377.92C128.891 377.701 128.627 377.519 128.294 377.375C127.964 377.231 127.591 377.104 127.175 376.994L125.8 376.619C124.868 376.366 124.129 375.992 123.584 375.5C123.042 375.008 122.771 374.356 122.771 373.545C122.771 372.875 122.953 372.29 123.317 371.79C123.68 371.29 124.173 370.902 124.794 370.625C125.415 370.345 126.116 370.205 126.896 370.205C127.684 370.205 128.379 370.343 128.982 370.619C129.588 370.896 130.065 371.277 130.413 371.761C130.762 372.242 130.944 372.795 130.959 373.42H129.266ZM137.153 373.273V374.636H132.386V373.273H137.153ZM133.665 371.182H135.364V379.438C135.364 379.767 135.413 380.015 135.511 380.182C135.61 380.345 135.737 380.456 135.892 380.517C136.051 380.574 136.223 380.602 136.409 380.602C136.545 380.602 136.665 380.593 136.767 380.574C136.869 380.555 136.949 380.54 137.006 380.528L137.312 381.932C137.214 381.97 137.074 382.008 136.892 382.045C136.71 382.087 136.483 382.11 136.21 382.114C135.763 382.121 135.347 382.042 134.96 381.875C134.574 381.708 134.261 381.451 134.023 381.102C133.784 380.754 133.665 380.316 133.665 379.79V371.182ZM142.615 382.176C141.797 382.176 141.083 381.989 140.473 381.614C139.863 381.239 139.39 380.714 139.053 380.04C138.715 379.366 138.547 378.578 138.547 377.676C138.547 376.771 138.715 375.979 139.053 375.301C139.39 374.623 139.863 374.097 140.473 373.722C141.083 373.347 141.797 373.159 142.615 373.159C143.433 373.159 144.147 373.347 144.757 373.722C145.367 374.097 145.84 374.623 146.178 375.301C146.515 375.979 146.683 376.771 146.683 377.676C146.683 378.578 146.515 379.366 146.178 380.04C145.84 380.714 145.367 381.239 144.757 381.614C144.147 381.989 143.433 382.176 142.615 382.176ZM142.621 380.75C143.151 380.75 143.59 380.61 143.939 380.33C144.287 380.049 144.545 379.676 144.712 379.21C144.882 378.744 144.967 378.231 144.967 377.67C144.967 377.114 144.882 376.602 144.712 376.136C144.545 375.667 144.287 375.29 143.939 375.006C143.59 374.722 143.151 374.58 142.621 374.58C142.087 374.58 141.643 374.722 141.291 375.006C140.943 375.29 140.683 375.667 140.513 376.136C140.346 376.602 140.263 377.114 140.263 377.67C140.263 378.231 140.346 378.744 140.513 379.21C140.683 379.676 140.943 380.049 141.291 380.33C141.643 380.61 142.087 380.75 142.621 380.75ZM148.58 382V373.273H150.222V374.659H150.312C150.472 374.189 150.752 373.82 151.153 373.551C151.559 373.278 152.017 373.142 152.528 373.142C152.634 373.142 152.759 373.146 152.903 373.153C153.051 373.161 153.167 373.17 153.25 373.182V374.807C153.182 374.788 153.061 374.767 152.886 374.744C152.712 374.718 152.538 374.705 152.364 374.705C151.962 374.705 151.604 374.79 151.29 374.96C150.979 375.127 150.733 375.36 150.551 375.659C150.369 375.955 150.278 376.292 150.278 376.67V382H148.58ZM158.169 382.176C157.309 382.176 156.569 381.992 155.947 381.625C155.33 381.254 154.853 380.733 154.516 380.062C154.182 379.388 154.016 378.598 154.016 377.693C154.016 376.799 154.182 376.011 154.516 375.33C154.853 374.648 155.322 374.116 155.925 373.733C156.531 373.35 157.239 373.159 158.05 373.159C158.542 373.159 159.019 373.241 159.482 373.403C159.944 373.566 160.358 373.822 160.726 374.17C161.093 374.519 161.383 374.972 161.595 375.528C161.807 376.081 161.913 376.754 161.913 377.545V378.148H154.976V376.875H160.249C160.249 376.428 160.158 376.032 159.976 375.688C159.794 375.339 159.538 375.064 159.209 374.864C158.883 374.663 158.5 374.562 158.061 374.562C157.584 374.562 157.167 374.68 156.811 374.915C156.459 375.146 156.186 375.449 155.993 375.824C155.804 376.195 155.709 376.598 155.709 377.034V378.028C155.709 378.612 155.811 379.108 156.016 379.517C156.224 379.926 156.514 380.239 156.885 380.455C157.256 380.667 157.69 380.773 158.186 380.773C158.508 380.773 158.802 380.727 159.067 380.636C159.332 380.542 159.561 380.402 159.754 380.216C159.947 380.03 160.095 379.801 160.197 379.528L161.805 379.818C161.677 380.292 161.446 380.706 161.112 381.062C160.783 381.415 160.368 381.689 159.868 381.886C159.372 382.08 158.805 382.176 158.169 382.176Z" fill="#5D6679"/>
</svg>
