<svg width="24" height="24" viewBox="0 0 24 24" fill="none" xmlns="http://www.w3.org/2000/svg">
<g clip-path="url(#clip0_13644_250)">
<path d="M11.9999 14.4999C13.3806 14.4999 14.4999 13.3806 14.4999 11.9999C14.4999 10.6192 13.3806 9.49992 11.9999 9.49992C10.6192 9.49992 9.49992 10.6192 9.49992 11.9999C9.49992 13.3806 10.6192 14.4999 11.9999 14.4999Z" stroke="#5D6679" stroke-width="1.2" stroke-linecap="round" stroke-linejoin="round"/>
<path d="M18.1666 14.4999C18.0557 14.7513 18.0226 15.0301 18.0716 15.3004C18.1206 15.5707 18.2495 15.8202 18.4416 16.0166L18.4916 16.0666C18.6465 16.2214 18.7695 16.4052 18.8533 16.6075C18.9372 16.8098 18.9804 17.0267 18.9804 17.2458C18.9804 17.4648 18.9372 17.6817 18.8533 17.884C18.7695 18.0863 18.6465 18.2701 18.4916 18.4249C18.3368 18.5799 18.153 18.7028 17.9507 18.7867C17.7483 18.8706 17.5314 18.9137 17.3124 18.9137C17.0934 18.9137 16.8765 18.8706 16.6742 18.7867C16.4719 18.7028 16.288 18.5799 16.1332 18.4249L16.0833 18.3749C15.8869 18.1828 15.6374 18.0539 15.3671 18.0049C15.0967 17.9559 14.8179 17.989 14.5666 18.0999C14.3201 18.2056 14.1099 18.381 13.9618 18.6045C13.8138 18.8281 13.7343 19.0901 13.7333 19.3583V19.4999C13.7333 19.9419 13.5577 20.3659 13.2451 20.6784C12.9325 20.991 12.5086 21.1666 12.0666 21.1666C11.6246 21.1666 11.2006 20.991 10.8881 20.6784C10.5755 20.3659 10.3999 19.9419 10.3999 19.4999V19.4249C10.3935 19.1491 10.3042 18.8816 10.1437 18.6572C9.98317 18.4328 9.75886 18.2618 9.49992 18.1666C9.24857 18.0557 8.96976 18.0226 8.69943 18.0716C8.4291 18.1206 8.17965 18.2495 7.98325 18.4416L7.93325 18.4916C7.77846 18.6465 7.59465 18.7695 7.39232 18.8533C7.18999 18.9372 6.97311 18.9804 6.75408 18.9804C6.53506 18.9804 6.31818 18.9372 6.11585 18.8533C5.91352 18.7695 5.72971 18.6465 5.57492 18.4916C5.41996 18.3368 5.29703 18.153 5.21315 17.9507C5.12928 17.7483 5.08611 17.5314 5.08611 17.3124C5.08611 17.0934 5.12928 16.8765 5.21315 16.6742C5.29703 16.4719 5.41996 16.288 5.57492 16.1332L5.62492 16.0833C5.81703 15.8869 5.94591 15.6374 5.99492 15.3671C6.04394 15.0967 6.01085 14.8179 5.89992 14.5666C5.79428 14.3201 5.61888 14.1099 5.39531 13.9618C5.17173 13.8138 4.90974 13.7343 4.64159 13.7333H4.49992C4.05789 13.7333 3.63397 13.5577 3.32141 13.2451C3.00885 12.9325 2.83325 12.5086 2.83325 12.0666C2.83325 11.6246 3.00885 11.2006 3.32141 10.8881C3.63397 10.5755 4.05789 10.3999 4.49992 10.3999H4.57492C4.85075 10.3935 5.11826 10.3042 5.34267 10.1437C5.56708 9.98317 5.73801 9.75886 5.83325 9.49992C5.94418 9.24857 5.97727 8.96976 5.92826 8.69943C5.87924 8.4291 5.75037 8.17965 5.55825 7.98325L5.50825 7.93325C5.35329 7.77846 5.23036 7.59465 5.14649 7.39232C5.06261 7.18999 5.01944 6.97311 5.01944 6.75408C5.01944 6.53506 5.06261 6.31818 5.14649 6.11585C5.23036 5.91352 5.35329 5.72971 5.50825 5.57492C5.66304 5.41996 5.84685 5.29703 6.04918 5.21315C6.25151 5.12928 6.46839 5.08611 6.68742 5.08611C6.90644 5.08611 7.12332 5.12928 7.32565 5.21315C7.52798 5.29703 7.7118 5.41996 7.86658 5.57492L7.91658 5.62492C8.11298 5.81703 8.36243 5.94591 8.63276 5.99492C8.90309 6.04394 9.1819 6.01085 9.43325 5.89992H9.49992C9.74639 5.79428 9.9566 5.61888 10.1047 5.39531C10.2527 5.17173 10.3322 4.90974 10.3333 4.64159V4.49992C10.3333 4.05789 10.5088 3.63397 10.8214 3.32141C11.134 3.00885 11.5579 2.83325 11.9999 2.83325C12.4419 2.83325 12.8659 3.00885 13.1784 3.32141C13.491 3.63397 13.6666 4.05789 13.6666 4.49992V4.57492C13.6677 4.84307 13.7471 5.10506 13.8952 5.32864C14.0432 5.55221 14.2534 5.72762 14.4999 5.83325C14.7513 5.94418 15.0301 5.97727 15.3004 5.92826C15.5707 5.87924 15.8202 5.75037 16.0166 5.55825L16.0666 5.50825C16.2214 5.35329 16.4052 5.23036 16.6075 5.14649C16.8098 5.06261 17.0267 5.01944 17.2458 5.01944C17.4648 5.01944 17.6817 5.06261 17.884 5.14649C18.0863 5.23036 18.2701 5.35329 18.4249 5.50825C18.5799 5.66304 18.7028 5.84685 18.7867 6.04918C18.8706 6.25151 18.9137 6.46839 18.9137 6.68742C18.9137 6.90644 18.8706 7.12332 18.7867 7.32565C18.7028 7.52798 18.5799 7.7118 18.4249 7.86658L18.3749 7.91658C18.1828 8.11298 18.0539 8.36243 18.0049 8.63276C17.9559 8.90309 17.989 9.1819 18.0999 9.43325V9.49992C18.2056 9.74639 18.381 9.9566 18.6045 10.1047C18.8281 10.2527 19.0901 10.3322 19.3583 10.3333H19.4999C19.9419 10.3333 20.3659 10.5088 20.6784 10.8214C20.991 11.134 21.1666 11.5579 21.1666 11.9999C21.1666 12.4419 20.991 12.8659 20.6784 13.1784C20.3659 13.491 19.9419 13.6666 19.4999 13.6666H19.4249C19.1568 13.6677 18.8948 13.7471 18.6712 13.8952C18.4476 14.0432 18.2722 14.2534 18.1666 14.4999Z" stroke="#5D6679" stroke-width="1.2" stroke-linecap="round" stroke-linejoin="round"/>
</g>
<defs>
<clipPath id="clip0_13644_250">
<rect width="20" height="20" fill="white" transform="translate(2 2)"/>
</clipPath>
</defs>
</svg>
